<svg width="25" height="24" viewBox="0 0 25 24" fill="none" xmlns="http://www.w3.org/2000/svg">
<g id="icons/Calendar/Line">
<path id="Shape" fill-rule="evenodd" clip-rule="evenodd" d="M19.666 6H5.66602C5.11373 6 4.66602 6.44772 4.66602 7V19C4.66602 19.5523 5.11373 20 5.66602 20H19.666C20.2183 20 20.666 19.5523 20.666 19V7C20.666 6.44771 20.2183 6 19.666 6ZM5.66602 4C4.00916 4 2.66602 5.34315 2.66602 7V19C2.66602 20.6569 4.00916 22 5.66602 22H19.666C21.3229 22 22.666 20.6569 22.666 19V7C22.666 5.34315 21.3229 4 19.666 4H5.66602Z" fill="#B1B5C4"/>
<path id="Shape_2" fill-rule="evenodd" clip-rule="evenodd" d="M10.666 12C10.1137 12 9.66602 12.4477 9.66602 13C9.66602 13.5523 10.1137 14 10.666 14H17.666C18.2183 14 18.666 13.5523 18.666 13C18.666 12.4477 18.2183 12 17.666 12H10.666ZM7.66602 16C7.11373 16 6.66602 16.4477 6.66602 17C6.66602 17.5523 7.11373 18 7.66602 18H13.666C14.2183 18 14.666 17.5523 14.666 17C14.666 16.4477 14.2183 16 13.666 16H7.66602Z" fill="#B1B5C4"/>
<path id="Shape_3" fill-rule="evenodd" clip-rule="evenodd" d="M7.66602 2C7.11373 2 6.66602 2.44772 6.66602 3V7C6.66602 7.55228 7.11373 8 7.66602 8C8.2183 8 8.66602 7.55228 8.66602 7V3C8.66602 2.44772 8.2183 2 7.66602 2ZM17.666 2C17.1137 2 16.666 2.44772 16.666 3V7C16.666 7.55228 17.1137 8 17.666 8C18.2183 8 18.666 7.55228 18.666 7V3C18.666 2.44772 18.2183 2 17.666 2Z" fill="#B1B5C4"/>
</g>
</svg>
